<svg xmlns="http://www.w3.org/2000/svg" xmlns:xlink="http://www.w3.org/1999/xlink" viewBox="0 0 50 50" fill="#002BFF">
  <path d="M0 7L0 8L0 43L50 43L50 7L0 7 z M 2 9L48 9L48 11.505859C47.575713 11.875664 29.813803 27.355977 28.335938 28.642578C27.038791 29.771847 25.717322 30.001953 25 30.001953C24.283393 30.001953 22.961399 29.772013 21.664062 28.642578C20.186197 27.355977 2.4242867 11.875664 2 11.505859L2 9 z M 2 14.150391C4.4379749 16.275559 18.967648 28.941928 20.353516 30.148438C22.05418 31.629002 23.854607 31.998047 25 31.998047C26.144678 31.998047 27.94563 31.629168 29.646484 30.148438C31.032347 28.941933 45.561926 16.277341 48 14.152344L48 41L2 41L2 14.150391 z" fill="#002BFF" />
</svg>