<svg xmlns="http://www.w3.org/2000/svg" xmlns:xlink="http://www.w3.org/1999/xlink" viewBox="0 0 50 50" fill="#002BFF">
  <path d="M46 13.5L44.894531 13.5C43.4375 13.507813 42.992188 14.179688 43 15.5L43 34C43.023438 35.074219 43.46875 35.480469 44.320313 35.5L46 35.5L46 40.5L31 40.5L31 35.5L34 35.5L34 15.5L26.105469 40.5L21.683594 40.5L14 15.5L14 35.5L16 35.5L16 40.5L4 40.5L4 35.5L5 35.5C6.492188 35.535156 7 34.128906 7 33.5L7 15.5C7.011719 14.484375 6.105469 13.472656 5 13.5L4 13.5L4.027344 7.5L19.5 7.5L25 25.964844L30.5 7.5L46 7.5Z" fill="#002BFF" />
</svg>