<svg xmlns="http://www.w3.org/2000/svg" width="30" height="36" viewBox="0 0 30 36">
  <path id="pdf_26px" d="M9,0A5.794,5.794,0,0,0,3,5.538V30.462A5.794,5.794,0,0,0,9,36H27a5.794,5.794,0,0,0,6-5.538V11.077c0-1.471-1.459-2.867-4.078-5.236-.363-.33-.756-.7-1.125-1.038s-.768-.66-1.125-1C24.105,1.39,22.594,0,21,0ZM9,2.769H19.922C21.006,3.023,21,4.224,21,5.452v4.24a1.449,1.449,0,0,0,1.5,1.385H27c1.494,0,3,.005,3,1.385v18a2.89,2.89,0,0,1-3,2.769H9a2.89,2.89,0,0,1-3-2.769V5.538A2.89,2.89,0,0,1,9,2.769Zm7.875,9.692a1.873,1.873,0,0,0-1.594.822,2.537,2.537,0,0,0-.234,1.644,10.32,10.32,0,0,0,1.266,3.115,23.146,23.146,0,0,1-.937,2.986,26.285,26.285,0,0,1-1.969,3.462,26.064,26.064,0,0,0-2.672,1.168,4.082,4.082,0,0,0-1.594,1.428,1.274,1.274,0,0,0-.047,1.038,1.6,1.6,0,0,0,.8.779,2.1,2.1,0,0,0,2.063-.26,7.489,7.489,0,0,0,1.734-1.687c.293-.379.557-.979.844-1.428.9-.379,1.512-.79,2.531-1.125a33.634,33.634,0,0,1,4.031-.909,6.357,6.357,0,0,0,3.422,1.212,3.663,3.663,0,0,0,1.734-.26,1.514,1.514,0,0,0,.75-1.3,1.387,1.387,0,0,0-.422-1,2.248,2.248,0,0,0-.984-.519,7.083,7.083,0,0,0-2.437-.043c-.486.049-1.148.292-1.687.389-.141-.1-.281-.06-.422-.173A14.669,14.669,0,0,1,18,18.26c-.059-.1-.035-.162-.094-.26a21.326,21.326,0,0,0,.656-2.163,4.86,4.86,0,0,0-.094-2.163,1.729,1.729,0,0,0-.516-.865A1.756,1.756,0,0,0,16.875,12.462Zm-.187,1.385a.934.934,0,0,1,.188,0c.082,0,.035-.011.047,0a.473.473,0,0,1,.141.216,4.041,4.041,0,0,1,0,1.558c-.006.054-.035.157-.047.216a11.56,11.56,0,0,1-.469-1.082,1.448,1.448,0,0,1,.094-.822C16.67,13.884,16.664,13.857,16.688,13.846Zm.656,5.885a15.748,15.748,0,0,0,2.344,2.639c-1.066.26-2.057.379-3.141.736-.352.114-.551.27-.891.389.363-.692.8-1.217,1.125-1.947C17.063,20.9,17.109,20.369,17.344,19.731Zm7.266,3.2a2.352,2.352,0,0,1,.609.043.7.7,0,0,1,.281.13c.018.016,0-.005,0,.043,0,.205.035.07,0,.087a3.95,3.95,0,0,1-.984.087c-.246,0-.539-.287-.8-.346C24.023,22.96,24.346,22.938,24.609,22.933ZM12,26.611a7.2,7.2,0,0,1-.891.909c-.363.238-.445.205-.516.173s-.041-.043-.047-.043a3.912,3.912,0,0,1,1.031-.865C11.672,26.724,11.895,26.67,12,26.611Z" transform="translate(-3)" fill="#002bff"/>
</svg>
